{
    "asset": {
        "version": "2.0",
        "generator": "Open Asset Import Library (assimp v5.2.0)"
    },
    "extensionsUsed": [
        "KHR_materials_volume",
        "FB_ngon_encoding"
    ],
    "accessors": [
        {
            "bufferView": 0,
            "byteOffset": 0,
            "componentType": 5126,
            "count": 522,
            "type": "VEC3",
            "max": [
                43.650001525878909,
                15.860540390014649,
                49.2789306640625
            ],
            "min": [
                -43.650001525878909,
                -15.860540390014649,
                -49.2789306640625
            ]
        },
        {
            "bufferView": 1,
            "byteOffset": 0,
            "componentType": 5126,
            "count": 522,
            "type": "VEC3",
            "max": [
                0.9999279975891113,
                1.0,
                1.0
            ],
            "min": [
                -1.0,
                -1.0,
                -1.0
            ]
        },
        {
            "bufferView": 2,
            "byteOffset": 0,
            "componentType": 5126,
            "count": 522,
            "type": "VEC2",
            "max": [
                1.0,
                1.0
            ],
            "min": [
                0.0,
                0.0
            ]
        },
        {
            "bufferView": 3,
            "byteOffset": 0,
            "componentType": 5126,
            "count": 522,
            "type": "VEC4",
            "max": [
                0.0,
                0.0,
                0.0,
                0.0
            ],
            "min": [
                0.0,
                0.0,
                0.0,
                0.0
            ]
        },
        {
            "bufferView": 4,
            "byteOffset": 0,
            "componentType": 5125,
            "count": 852,
            "type": "SCALAR",
            "max": [
                521
            ],
            "min": [
                0
            ]
        }
    ],
    "buffers": [
        {
            "byteLength": 28464,
            "uri": "hand_model_11511.bin"
        }
    ],
    "bufferViews": [
        {
            "buffer": 0,
            "byteOffset": 0,
            "byteLength": 6264,
            "target": 34962
        },
        {
            "buffer": 0,
            "byteOffset": 6264,
            "byteLength": 6264,
            "target": 34962
        },
        {
            "buffer": 0,
            "byteOffset": 12528,
            "byteLength": 4176,
            "target": 34962
        },
        {
            "buffer": 0,
            "byteOffset": 16704,
            "byteLength": 8352,
            "target": 34962
        },
        {
            "buffer": 0,
            "byteOffset": 25056,
            "byteLength": 3408,
            "target": 34963
        }
    ],
    "materials": [
        {
            "name": "Material_0",
            "pbrMetallicRoughness": {
                "baseColorFactor": [
                    0.29019609093666079,
                    0.843137264251709,
                    1.0,
                    1.0
                ],
                "metallicFactor": 0.5,
                "roughnessFactor": 0.5
            },
            "emissiveFactor": [
                0.06666667014360428,
                0.06666667014360428,
                0.06666667014360428
            ]
        },
        {
            "name": "material"
        }
    ],
    "meshes": [
        {
            "name": "meshes[0]",
            "primitives": [
                {
                    "mode": 4,
                    "material": 0,
                    "indices": 4,
                    "attributes": {
                        "POSITION": 0,
                        "NORMAL": 1,
                        "TEXCOORD_0": 2,
                        "COLOR_0": 3
                    }
                }
            ]
        }
    ],
    "nodes": [
        {
            "name": "hand_model_11511",
            "matrix": [
                1.0,
                0.0,
                0.0,
                0.0,
                0.0,
                1.0,
                0.0,
                0.0,
                0.0,
                0.0,
                1.0,
                0.0,
                17.645370483398439,
                17.06946563720703,
                19.08167266845703,
                1.0
            ],
            "mesh": 0
        }
    ],
    "scenes": [
        {
            "nodes": [
                0
            ]
        }
    ],
    "scene": 0
}