{
    "asset": {
        "version": "2.0",
        "generator": "Open Asset Import Library (assimp v5.2.0)"
    },
    "extensionsUsed": [
        "KHR_materials_volume",
        "FB_ngon_encoding"
    ],
    "accessors": [
        {
            "bufferView": 0,
            "byteOffset": 0,
            "componentType": 5126,
            "count": 528,
            "type": "VEC3",
            "max": [
                35.5,
                20.809999465942384,
                50.849998474121097
            ],
            "min": [
                -35.5,
                -20.809999465942384,
                -50.849998474121097
            ]
        },
        {
            "bufferView": 1,
            "byteOffset": 0,
            "componentType": 5126,
            "count": 528,
            "type": "VEC3",
            "max": [
                0.9998112916946411,
                0.999687671661377,
                1.0
            ],
            "min": [
                -1.0,
                -1.0,
                -1.0
            ]
        },
        {
            "bufferView": 2,
            "byteOffset": 0,
            "componentType": 5126,
            "count": 528,
            "type": "VEC2",
            "max": [
                1.0,
                1.0
            ],
            "min": [
                0.0,
                0.0
            ]
        },
        {
            "bufferView": 3,
            "byteOffset": 0,
            "componentType": 5126,
            "count": 528,
            "type": "VEC4",
            "max": [
                0.0,
                0.0,
                0.0,
                0.0
            ],
            "min": [
                0.0,
                0.0,
                0.0,
                0.0
            ]
        },
        {
            "bufferView": 4,
            "byteOffset": 0,
            "componentType": 5125,
            "count": 852,
            "type": "SCALAR",
            "max": [
                527
            ],
            "min": [
                0
            ]
        }
    ],
    "buffers": [
        {
            "byteLength": 28752,
            "uri": "hand_model_00110.bin"
        }
    ],
    "bufferViews": [
        {
            "buffer": 0,
            "byteOffset": 0,
            "byteLength": 6336,
            "target": 34962
        },
        {
            "buffer": 0,
            "byteOffset": 6336,
            "byteLength": 6336,
            "target": 34962
        },
        {
            "buffer": 0,
            "byteOffset": 12672,
            "byteLength": 4224,
            "target": 34962
        },
        {
            "buffer": 0,
            "byteOffset": 16896,
            "byteLength": 8448,
            "target": 34962
        },
        {
            "buffer": 0,
            "byteOffset": 25344,
            "byteLength": 3408,
            "target": 34963
        }
    ],
    "materials": [
        {
            "name": "Material_0",
            "pbrMetallicRoughness": {
                "baseColorFactor": [
                    0.29019609093666079,
                    0.843137264251709,
                    1.0,
                    1.0
                ],
                "metallicFactor": 0.5,
                "roughnessFactor": 0.5
            },
            "emissiveFactor": [
                0.06666667014360428,
                0.06666667014360428,
                0.06666667014360428
            ]
        },
        {
            "name": "material"
        }
    ],
    "meshes": [
        {
            "name": "meshes[0]",
            "primitives": [
                {
                    "mode": 4,
                    "material": 0,
                    "indices": 4,
                    "attributes": {
                        "POSITION": 0,
                        "NORMAL": 1,
                        "TEXCOORD_0": 2,
                        "COLOR_0": 3
                    }
                }
            ]
        }
    ],
    "nodes": [
        {
            "name": "hand_model_00110",
            "matrix": [
                1.0,
                0.0,
                0.0,
                0.0,
                0.0,
                1.0,
                0.0,
                0.0,
                0.0,
                0.0,
                1.0,
                0.0,
                9.496630668640137,
                22.1807804107666,
                20.652740478515626,
                1.0
            ],
            "mesh": 0
        }
    ],
    "scenes": [
        {
            "nodes": [
                0
            ]
        }
    ],
    "scene": 0
}